<?xml version="1.0" encoding="UTF-8" standalone="no"?>
<svg
   xmlns:dc="http://purl.org/dc/elements/1.1/"
   xmlns:cc="http://creativecommons.org/ns#"
   xmlns:rdf="http://www.w3.org/1999/02/22-rdf-syntax-ns#"
   xmlns:svg="http://www.w3.org/2000/svg"
   xmlns="http://www.w3.org/2000/svg"
   xmlns:sodipodi="http://sodipodi.sourceforge.net/DTD/sodipodi-0.dtd"
   xmlns:inkscape="http://www.inkscape.org/namespaces/inkscape"
   viewBox="0 0 448 448"
   version="1.1"
   id="svg10"
   sodipodi:docname="arrow-up-right-from-square.svg"
   width="448"
   height="448"
   inkscape:version="1.0.1 (3bc2e813f5, 2020-09-07)">
  <metadata
     id="metadata14">
    <rdf:RDF>
      <cc:Work
         rdf:about="">
        <dc:format>image/svg+xml</dc:format>
        <dc:type
           rdf:resource="http://purl.org/dc/dcmitype/StillImage" />
        <dc:title></dc:title>
      </cc:Work>
    </rdf:RDF>
  </metadata>
  <sodipodi:namedview
     pagecolor="#ffffff"
     bordercolor="#666666"
     borderopacity="1"
     objecttolerance="10"
     gridtolerance="10"
     guidetolerance="10"
     inkscape:pageopacity="0"
     inkscape:pageshadow="2"
     inkscape:window-width="1280"
     inkscape:window-height="953"
     id="namedview12"
     showgrid="false"
     inkscape:zoom="0.83984375"
     inkscape:cx="184.02984"
     inkscape:cy="358.44325"
     inkscape:window-x="-8"
     inkscape:window-y="44"
     inkscape:window-maximized="1"
     inkscape:current-layer="svg10" />
  <!--! Font Awesome Pro 6.1.1 by @fontawesome - https://fontawesome.com License - https://fontawesome.com/license (Commercial License) Copyright 2022 Fonticons, Inc. -->
  <defs
     id="defs4">
    <style
       id="style2">.fa-secondary{opacity:.4}</style>
  </defs>
  <path
     class="fa-primary"
     d="M 256,32 C 256,14.33 270.3,0 288,0 h 128 c 17.7,0 32,14.33 32,32 v 128 c 0,17.7 -14.3,32 -32,32 -17.7,0 -32,-14.3 -32,-32 V 109.3 L 214.6,278.6 c -12.5,12.5 -32.7,12.5 -45.2,0 -12.5,-12.5 -12.5,-32.7 0,-45.2 L 338.7,64 H 288 C 270.3,64 256,49.67 256,32 Z"
     id="path6"
     style="fill:#999999" />
  <path
     class="fa-secondary"
     d="M 0,96 C 0,60.65 28.65,32 64,32 h 96 c 17.7,0 32,14.33 32,32 0,17.7 -14.3,32 -32,32 H 64 v 288 h 288 v -96 c 0,-17.7 14.3,-32 32,-32 17.7,0 32,14.3 32,32 v 96 c 0,35.3 -28.7,64 -64,64 H 64 C 28.65,448 0,419.3 0,384 Z"
     id="path8"
     style="fill:#b3b3b3" />
</svg>
