<?xml version="1.0" encoding="UTF-8" standalone="no"?>
<svg
   viewBox="0 0 576 512"
   version="1.1"
   id="svg10"
   sodipodi:docname="house.svg"
   inkscape:version="1.2.1 (9c6d41e410, 2022-07-14)"
   xmlns:inkscape="http://www.inkscape.org/namespaces/inkscape"
   xmlns:sodipodi="http://sodipodi.sourceforge.net/DTD/sodipodi-0.dtd"
   xmlns="http://www.w3.org/2000/svg"
   xmlns:svg="http://www.w3.org/2000/svg">
  <sodipodi:namedview
     id="namedview12"
     pagecolor="#ffffff"
     bordercolor="#666666"
     borderopacity="1.0"
     inkscape:showpageshadow="2"
     inkscape:pageopacity="0.0"
     inkscape:pagecheckerboard="0"
     inkscape:deskcolor="#d1d1d1"
     showgrid="false"
     inkscape:zoom="1.6289062"
     inkscape:cx="287.92326"
     inkscape:cy="256"
     inkscape:window-width="1920"
     inkscape:window-height="979"
     inkscape:window-x="1280"
     inkscape:window-y="32"
     inkscape:window-maximized="1"
     inkscape:current-layer="svg10" />
  <!--! Font Awesome Pro 6.1.2 by @fontawesome - https://fontawesome.com License - https://fontawesome.com/license (Commercial License) Copyright 2022 Fonticons, Inc. -->
  <defs
     id="defs4">
    <style
       id="style2">.fa-secondary{opacity:.4}</style>
  </defs>
  <path
     class="fa-primary"
     d="M266.9 7.918C278.1-2.639 297-2.639 309.1 7.918L565.1 231.9C578.4 243.6 579.7 263.8 568.1 277.1C556.4 290.4 536.2 291.7 522.9 280.1L288 74.52L53.07 280.1C39.77 291.7 19.56 290.4 7.918 277.1C-3.72 263.8-2.372 243.6 10.93 231.9L266.9 7.918z"
     id="path6"
     style="fill:#999999" />
  <path
     class="fa-secondary"
     d="M288 74.52L512.1 270.6L512.5 471.9C512.6 494 494.7 512 472.5 512H392C369.9 512 352 494.1 352 472V383.7C352 366 337.7 351.7 320 351.7H256C238.3 351.7 224 366 224 383.7V472C224 494.1 206.1 512 184 512H104.1C81.1 512 64.09 494.1 64.08 472L64.02 270.5L288 74.52z"
     id="path8"
     style="fill:#b3b3b3" />
</svg>
