<?xml version="1.0" encoding="UTF-8" standalone="no"?>
<svg
   xmlns:dc="http://purl.org/dc/elements/1.1/"
   xmlns:cc="http://creativecommons.org/ns#"
   xmlns:rdf="http://www.w3.org/1999/02/22-rdf-syntax-ns#"
   xmlns:svg="http://www.w3.org/2000/svg"
   xmlns="http://www.w3.org/2000/svg"
   xmlns:sodipodi="http://sodipodi.sourceforge.net/DTD/sodipodi-0.dtd"
   xmlns:inkscape="http://www.inkscape.org/namespaces/inkscape"
   viewBox="0 0 384 512"
   version="1.1"
   id="svg10"
   sodipodi:docname="location-smile-duotone.svg"
   inkscape:version="1.0.1 (3bc2e813f5, 2020-09-07)">
  <metadata
     id="metadata14">
    <rdf:RDF>
      <cc:Work
         rdf:about="">
        <dc:format>image/svg+xml</dc:format>
        <dc:type
           rdf:resource="http://purl.org/dc/dcmitype/StillImage" />
      </cc:Work>
    </rdf:RDF>
  </metadata>
  <sodipodi:namedview
     pagecolor="#ffffff"
     bordercolor="#666666"
     borderopacity="1"
     objecttolerance="10"
     gridtolerance="10"
     guidetolerance="10"
     inkscape:pageopacity="0"
     inkscape:pageshadow="2"
     inkscape:window-width="1920"
     inkscape:window-height="1009"
     id="namedview12"
     showgrid="false"
     inkscape:zoom="1.6796875"
     inkscape:cx="192"
     inkscape:cy="256"
     inkscape:window-x="1272"
     inkscape:window-y="-8"
     inkscape:window-maximized="1"
     inkscape:current-layer="svg10" />
  <!--! Font Awesome Pro 6.2.1 by @fontawesome - https://fontawesome.com License - https://fontawesome.com/license (Commercial License) Copyright 2022 Fonticons, Inc. -->
  <defs
     id="defs4">
    <style
       id="style2">.fa-secondary{opacity:.4}</style>
  </defs>
  <path
     class="fa-primary"
     d="M160 160C160 177.7 145.7 192 128 192C110.3 192 96 177.7 96 160C96 142.3 110.3 128 128 128C145.7 128 160 142.3 160 160zM288 160C288 177.7 273.7 192 256 192C238.3 192 224 177.7 224 160C224 142.3 238.3 128 256 128C273.7 128 288 142.3 288 160zM192 276C226.3 276 249.1 254.3 255.4 244.9C261.5 235.7 273.9 233.2 283.1 239.4C292.3 245.5 294.8 257.9 288.6 267.1C277.1 284.4 243.1 316 192 316C140.9 316 106.9 284.4 95.36 267.1C89.23 257.9 91.72 245.5 100.9 239.4C110.1 233.2 122.5 235.7 128.6 244.9C134.9 254.3 157.7 276 192 276z"
     id="path6"
     style="fill:#999999" />
  <path
     class="fa-secondary"
     d="M168.3 499.2C116.1 435 0 279.4 0 192C0 85.96 85.96 0 192 0C298 0 384 85.96 384 192C384 279.4 267 435 215.7 499.2C203.4 514.5 180.6 514.5 168.3 499.2H168.3zM128 192C145.7 192 160 177.7 160 160C160 142.3 145.7 128 128 128C110.3 128 96 142.3 96 160C96 177.7 110.3 192 128 192zM256 128C238.3 128 224 142.3 224 160C224 177.7 238.3 192 256 192C273.7 192 288 177.7 288 160C288 142.3 273.7 128 256 128zM128.6 244.9C122.5 235.7 110.1 233.2 100.9 239.4C91.72 245.5 89.23 257.9 95.36 267.1C106.9 284.4 140.9 316 192 316C243.1 316 277.1 284.4 288.6 267.1C294.8 257.9 292.3 245.5 283.1 239.4C273.9 233.2 261.5 235.7 255.4 244.9C249.1 254.3 226.3 276 192 276C157.7 276 134.9 254.3 128.6 244.9z"
     id="path8"
     style="fill:#b3b3b3" />
</svg>
