<?xml version="1.0" encoding="UTF-8" standalone="no"?>
<svg
   viewBox="0 0 512 512"
   version="1.1"
   id="svg10"
   sodipodi:docname="marker.svg"
   width="512"
   height="512"
   inkscape:version="1.2.1 (9c6d41e410, 2022-07-14)"
   xmlns:inkscape="http://www.inkscape.org/namespaces/inkscape"
   xmlns:sodipodi="http://sodipodi.sourceforge.net/DTD/sodipodi-0.dtd"
   xmlns="http://www.w3.org/2000/svg"
   xmlns:svg="http://www.w3.org/2000/svg">
  <sodipodi:namedview
     id="namedview12"
     pagecolor="#ffffff"
     bordercolor="#666666"
     borderopacity="1.0"
     inkscape:showpageshadow="2"
     inkscape:pageopacity="0.0"
     inkscape:pagecheckerboard="0"
     inkscape:deskcolor="#d1d1d1"
     showgrid="false"
     inkscape:zoom="0.40722656"
     inkscape:cx="12.278177"
     inkscape:cy="248.01918"
     inkscape:window-width="1920"
     inkscape:window-height="979"
     inkscape:window-x="1280"
     inkscape:window-y="32"
     inkscape:window-maximized="1"
     inkscape:current-layer="svg10" />
  <!--! Font Awesome Pro 6.1.2 by @fontawesome - https://fontawesome.com License - https://fontawesome.com/license (Commercial License) Copyright 2022 Fonticons, Inc. -->
  <defs
     id="defs4">
    <style
       id="style2">.fa-secondary{opacity:.4}</style>
  </defs>
  <path
     class="fa-primary"
     d="m 304,192 c 0,26.5 -21.5,48 -48,48 -26.5,0 -48,-21.5 -48,-48 0,-26.5 21.5,-48 48,-48 26.5,0 48,21.5 48,48 z"
     id="path6"
     style="fill:#999999;fill-opacity:1" />
  <path
     class="fa-secondary"
     d="M 232.3,499.2 C 180.1,435 64,279.4 64,192 64,85.96 149.96,0 256,0 c 106,0 192,85.96 192,192 0,87.4 -117,243 -168.3,307.2 -12.3,15.3 -35.1,15.3 -47.4,0 z M 256,272 c 44.2,0 80,-35.8 80,-80 0,-44.2 -35.8,-80 -80,-80 -44.2,0 -80,35.8 -80,80 0,44.2 35.8,80 80,80 z"
     id="path8"
     style="fill:#b4b4b4;fill-opacity:0.4" />
</svg>
