<?xml version="1.0" encoding="UTF-8" standalone="no"?>
<svg
   xmlns:dc="http://purl.org/dc/elements/1.1/"
   xmlns:cc="http://creativecommons.org/ns#"
   xmlns:rdf="http://www.w3.org/1999/02/22-rdf-syntax-ns#"
   xmlns:svg="http://www.w3.org/2000/svg"
   xmlns="http://www.w3.org/2000/svg"
   xmlns:sodipodi="http://sodipodi.sourceforge.net/DTD/sodipodi-0.dtd"
   xmlns:inkscape="http://www.inkscape.org/namespaces/inkscape"
   viewBox="0 0 320 447.09"
   version="1.1"
   id="svg10"
   sodipodi:docname="question-duotone.svg"
   width="320"
   height="447.09"
   inkscape:version="1.0.1 (3bc2e813f5, 2020-09-07)">
  <metadata
     id="metadata14">
    <rdf:RDF>
      <cc:Work
         rdf:about="">
        <dc:format>image/svg+xml</dc:format>
        <dc:type
           rdf:resource="http://purl.org/dc/dcmitype/StillImage" />
        <dc:title></dc:title>
      </cc:Work>
    </rdf:RDF>
  </metadata>
  <sodipodi:namedview
     pagecolor="#ffffff"
     bordercolor="#666666"
     borderopacity="1"
     objecttolerance="10"
     gridtolerance="10"
     guidetolerance="10"
     inkscape:pageopacity="0"
     inkscape:pageshadow="2"
     inkscape:window-width="1920"
     inkscape:window-height="1009"
     id="namedview12"
     showgrid="false"
     fit-margin-top="0"
     fit-margin-left="0"
     fit-margin-right="0"
     fit-margin-bottom="0"
     inkscape:zoom="1.1877184"
     inkscape:cx="156.97913"
     inkscape:cy="282.25558"
     inkscape:window-x="1272"
     inkscape:window-y="-8"
     inkscape:window-maximized="1"
     inkscape:current-layer="svg10" />
  <!--! Font Awesome Pro 6.2.1 by @fontawesome - https://fontawesome.com License - https://fontawesome.com/license (Commercial License) Copyright 2022 Fonticons, Inc. -->
  <defs
     id="defs4">
    <style
       id="style2">.fa-secondary{opacity:.4}</style>
  </defs>
  <path
     class="fa-primary"
     d="M 204.3,0 H 96 C 43.06,0 0,43.06 0,96 c 0,17.67 14.31,31.1 32,31.1 17.69,0 32,-14.32 32,-31.1 0,-17.64 14.34,-32 32,-32 h 108.3 c 28.5,0 51.7,23.19 51.7,51.79 0,19.72 -10.97,37.47 -30.5,47.33 l -97.7,57.27 c -10.7,5.8 -15.8,16.3 -15.8,27.6 v 40 c 0,17.67 14.31,31.99 32,31.99 17.69,0 32,-14.32 32,-31.99 v -21.7 l 80,-47 c 39.47,-19.75 64,-59.42 64,-103.5 C 320,51.94 268.1,0 204.3,0 Z"
     id="path6"
     style="fill:#999999" />
  <path
     class="fa-secondary"
     d="m 144,367.99 c -22.09,0 -40,17.91 -40,40 0,22.09 17.91,39.1 40,39.1 22.09,0 40,-17.9 40,-39.1 0,-21.2 -17.9,-40 -40,-40 z"
     id="path8"
     style="fill:#b3b3b3" />
</svg>
