<?xml version="1.0" encoding="UTF-8" standalone="no"?>
<svg
   xmlns:dc="http://purl.org/dc/elements/1.1/"
   xmlns:cc="http://creativecommons.org/ns#"
   xmlns:rdf="http://www.w3.org/1999/02/22-rdf-syntax-ns#"
   xmlns:svg="http://www.w3.org/2000/svg"
   xmlns="http://www.w3.org/2000/svg"
   xmlns:sodipodi="http://sodipodi.sourceforge.net/DTD/sodipodi-0.dtd"
   xmlns:inkscape="http://www.inkscape.org/namespaces/inkscape"
   viewBox="0 0 576 512"
   version="1.1"
   id="svg10"
   sodipodi:docname="turtle-duotone.svg"
   inkscape:version="1.0.1 (3bc2e813f5, 2020-09-07)">
  <metadata
     id="metadata14">
    <rdf:RDF>
      <cc:Work
         rdf:about="">
        <dc:format>image/svg+xml</dc:format>
        <dc:type
           rdf:resource="http://purl.org/dc/dcmitype/StillImage" />
      </cc:Work>
    </rdf:RDF>
  </metadata>
  <sodipodi:namedview
     pagecolor="#ffffff"
     bordercolor="#666666"
     borderopacity="1"
     objecttolerance="10"
     gridtolerance="10"
     guidetolerance="10"
     inkscape:pageopacity="0"
     inkscape:pageshadow="2"
     inkscape:window-width="1920"
     inkscape:window-height="1009"
     id="namedview12"
     showgrid="false"
     inkscape:zoom="0.83984375"
     inkscape:cx="419.41247"
     inkscape:cy="255.46543"
     inkscape:window-x="1272"
     inkscape:window-y="-8"
     inkscape:window-maximized="1"
     inkscape:current-layer="svg10" />
  <!--! Font Awesome Pro 6.2.1 by @fontawesome - https://fontawesome.com License - https://fontawesome.com/license (Commercial License) Copyright 2022 Fonticons, Inc. -->
  <defs
     id="defs4">
    <style
       id="style2">.fa-secondary{opacity:.4}</style>
  </defs>
  <path
     class="fa-primary"
     d="M345.2 288H70.79C49.37 288 32 270.6 32 249.2V208C32 110.8 110.8 32 208 32C305.2 32 384 110.8 384 208V249.2C384 270.6 366.6 288 345.2 288z"
     id="path6"
     style="fill:#999999" />
  <path
     class="fa-secondary"
     d="M352 383.8V440C352 462.1 334.1 480 312 480H264C241.9 480 224 462.1 224 440V384H192V440C192 462.1 174.1 480 152 480H104C81.91 480 64 462.1 64 440V384H32C14.33 384 0 369.7 0 352C0 334.3 14.33 320 32 320H344C383.8 320 416 287.8 416 248V176C416 140.7 444.7 112 480 112C533 112 576 154.1 576 208V224C576 259.3 547.3 288 512 288H480C478 288 476 287.9 474.1 287.7C457.9 341 409.8 380.4 352 383.8zM496 224C504.8 224 512 216.8 512 208C512 199.2 504.8 192 496 192C487.2 192 480 199.2 480 208C480 216.8 487.2 224 496 224z"
     id="path8"
     style="fill:#b3b3b3" />
</svg>
