<?xml version="1.0" encoding="UTF-8" standalone="no"?>
<svg
   viewBox="0 0 640 640"
   version="1.1"
   id="svg10"
   sodipodi:docname="warehouse.svg"
   width="640"
   height="640"
   inkscape:version="1.2.1 (9c6d41e410, 2022-07-14)"
   xmlns:inkscape="http://www.inkscape.org/namespaces/inkscape"
   xmlns:sodipodi="http://sodipodi.sourceforge.net/DTD/sodipodi-0.dtd"
   xmlns="http://www.w3.org/2000/svg"
   xmlns:svg="http://www.w3.org/2000/svg">
  <sodipodi:namedview
     id="namedview12"
     pagecolor="#ffffff"
     bordercolor="#666666"
     borderopacity="1.0"
     inkscape:showpageshadow="2"
     inkscape:pageopacity="0.0"
     inkscape:pagecheckerboard="0"
     inkscape:deskcolor="#d1d1d1"
     showgrid="false"
     inkscape:zoom="0.57590533"
     inkscape:cx="-494.873"
     inkscape:cy="303.86939"
     inkscape:window-width="1920"
     inkscape:window-height="979"
     inkscape:window-x="1280"
     inkscape:window-y="32"
     inkscape:window-maximized="1"
     inkscape:current-layer="svg10" />
  <!--! Font Awesome Pro 6.1.2 by @fontawesome - https://fontawesome.com License - https://fontawesome.com/license (Commercial License) Copyright 2022 Fonticons, Inc. -->
  <defs
     id="defs4">
    <style
       id="style2">.fa-secondary{opacity:.4}</style>
  </defs>
  <g
     id="g3401"
     transform="translate(0,62.767625)">
    <path
       class="fa-primary"
       d="M 40.23,111.9 308.1,4.753 c 7.6,-3.051 16.2,-3.051 23.8,0 L 599.8,111.9 c 24.3,9.7 40.2,33.3 40.2,59.4 V 488 c 0,13.3 -10.7,24 -24,24 h -48 c -13.3,0 -24,-10.7 -24,-24 V 223.1 c 0,-16.8 -14.3,-32 -32,-32 H 128 c -17.7,0 -32,15.2 -32,32 V 488 c 0,13.3 -10.75,24 -24,24 H 24 C 10.75,512 0,501.3 0,488 V 171.3 c 0,-26.1 15.93,-49.7 40.23,-59.4 z"
       id="path6"
       style="fill:#999999;fill-opacity:1" />
    <path
       class="fa-secondary"
       d="m 128,248 c 0,-13.3 10.7,-24 24,-24 h 144 c 13.3,0 24,10.7 24,24 v 80 c 0,13.3 -10.7,24 -24,24 H 152 c -13.3,0 -24,-10.7 -24,-24 z m 224,160 c 0,-13.3 10.7,-24 24,-24 h 112 c 13.3,0 24,10.7 24,24 v 80 c 0,13.3 -10.7,24 -24,24 H 376 c -13.3,0 -24,-10.7 -24,-24 z m -56,-24 c 13.3,0 24,10.7 24,24 v 80 c 0,13.3 -10.7,24 -24,24 H 152 c -13.3,0 -24,-10.7 -24,-24 v -80 c 0,-13.3 10.7,-24 24,-24 z"
       id="path8"
       style="fill:#b4b4b4;fill-opacity:0.4" />
  </g>
</svg>
