<?xml version="1.0" encoding="UTF-8" standalone="no"?>
<svg
   xmlns:dc="http://purl.org/dc/elements/1.1/"
   xmlns:cc="http://creativecommons.org/ns#"
   xmlns:rdf="http://www.w3.org/1999/02/22-rdf-syntax-ns#"
   xmlns:svg="http://www.w3.org/2000/svg"
   xmlns="http://www.w3.org/2000/svg"
   xmlns:sodipodi="http://sodipodi.sourceforge.net/DTD/sodipodi-0.dtd"
   xmlns:inkscape="http://www.inkscape.org/namespaces/inkscape"
   viewBox="0 0 320.02499 320.02499"
   version="1.1"
   id="svg8"
   sodipodi:docname="xmark.svg"
   width="320.02499"
   height="320.02499"
   inkscape:version="1.0.1 (3bc2e813f5, 2020-09-07)">
  <metadata
     id="metadata12">
    <rdf:RDF>
      <cc:Work
         rdf:about="">
        <dc:format>image/svg+xml</dc:format>
        <dc:type
           rdf:resource="http://purl.org/dc/dcmitype/StillImage" />
        <dc:title></dc:title>
      </cc:Work>
    </rdf:RDF>
  </metadata>
  <sodipodi:namedview
     pagecolor="#ffffff"
     bordercolor="#666666"
     borderopacity="1"
     objecttolerance="10"
     gridtolerance="10"
     guidetolerance="10"
     inkscape:pageopacity="0"
     inkscape:pageshadow="2"
     inkscape:window-width="1920"
     inkscape:window-height="1009"
     id="namedview10"
     showgrid="false"
     fit-margin-top="0"
     fit-margin-left="0"
     fit-margin-right="0"
     fit-margin-bottom="0"
     inkscape:zoom="0.83984375"
     inkscape:cx="100.28922"
     inkscape:cy="224.56275"
     inkscape:window-x="1272"
     inkscape:window-y="-8"
     inkscape:window-maximized="1"
     inkscape:current-layer="svg8" />
  <!--! Font Awesome Pro 6.1.1 by @fontawesome - https://fontawesome.com License - https://fontawesome.com/license (Commercial License) Copyright 2022 Fonticons, Inc. -->
  <defs
     id="defs4">
    <style
       id="style2">.fa-secondary{opacity:.4}</style>
  </defs>
  <path
     class="fa-secondary"
     d="m 310.6,265.425 c 12.5,12.5 12.5,32.75 0,45.25 -6.2,6.25 -14.4,9.35 -22.6,9.35 -8.2,0 -16.38,-3.125 -22.62,-9.375 L 160,205.325 54.63,310.625 c -6.25,6.3 -14.44,9.4 -22.63,9.4 -8.19,0 -16.37,-3.1 -22.625,-9.4 -12.5,-12.5 -12.5,-32.75 0,-45.25 l 105.4,-105.4 -105.4,-105.35 c -12.5,-12.5 -12.5,-32.75 0,-45.25 12.5,-12.5 32.75,-12.5 45.25,0 L 160,114.825 265.4,9.425 c 12.5,-12.5 32.75,-12.5 45.25,0 12.5,12.5 12.5,32.75 0,45.25 l -105.4,105.4 z"
     id="path6"
     style="fill:#378f6a;fill-opacity:1;opacity:1" />
</svg>
